<svg id="Layer_1" data-name="Layer 1" xmlns="http://www.w3.org/2000/svg" viewBox="0 0 239.8 239.8"><defs><style>.cls-1{fill:#fff;}</style></defs><title>logo</title><path class="cls-1" d="M747.6,556.62c9.09,9.12,16.94,17,24.84,24.89,3.8,3.78,5.85,3.52,9.5-.32,5-5.27,10.18-10.38,15.41-15.42,3.63-3.5,3.88-5.58.34-9.14-8-8-16-16-23.85-25.42,7.31-.69,14.61-2,21.92-2,47.49-.18,95,0,142.47-.12,22.06,0,40.59,14.41,45.58,36.13a42.09,42.09,0,0,1,1,9.31c.06,49,.12,98-.06,147,0,6.17-1.44,12.34-2.37,19.79-8.74-8.74-16.44-16.44-24.15-24.12-4.68-4.67-7-4.21-11.21.76a123.9,123.9,0,0,1-13.34,13.26c-4.66,4-5,5.56-.72,9.89,7.88,7.89,15.78,15.76,24.7,24.67-6.25,1.15-11.59,3-16.93,3-49.65.22-99.31.08-149,.15-22.09,0-40.59-14.4-45.6-36.11a41.93,41.93,0,0,1-1-9.31c-.06-49-.13-98,.06-147C745.25,570.35,746.66,564.18,747.6,556.62Zm215.52,92.45c1.64-55.09-44.29-95.32-89.91-98.33-64.75-4.27-103.73,46.56-106.51,90.42-4.06,64.16,46.56,103.29,90.82,106.21C919.86,751.48,965.44,700.34,963.12,649.07Z" transform="translate(-745.1 -529.1)"/><path class="cls-1" d="M865,554.12c50.8-1.19,98.18,42,95,100.88-2.47,45.18-40.78,92.17-101.46,88.89-44.79-2.43-91.69-40.62-88.36-101.38C772.67,596.22,811.39,553.62,865,554.12Zm.13,180c47.39,1.51,82.49-38.36,85.14-78,3.75-56-40.4-90-78.41-92.43-55.61-3.6-89.62,40.45-92.24,78.67C775.92,696.5,820.66,736.46,865.14,734.12Z" transform="translate(-745.1 -529.1)"/><path class="cls-1" d="M862.82,628.3l-7.37,9.05c-5.69-5.34-12-8.55-19.77-7.56-8.39,1.07-14,5.66-16.78,13.44-2.59,7.36-1.18,14.09,3.9,20.36,5.93,7.32,13.7,7.56,21.69,6.34,6-.92,9.23-5.78,11.8-11,4.32-8.84,8-18.19,13.46-26.24,14.63-21.4,40.2-18.46,52-1,12,17.7,4.85,42.74-17.91,49.86-11.53,3.6-27.07-1.5-33-10.38l6.61-8.24c1.7,1.16,3.21,2.07,4.6,3.14,7,5.4,14.53,5.92,22.29,2.25,8.06-3.81,11.07-10.47,11-19.35-.11-8.43-4.41-13.52-11.21-17.12s-13.48-3-19.45,1.94c-6.84,5.67-10.71,13.35-13.71,21.5-3.56,9.67-8.47,18.29-17.65,23.76-10,6-27.37,3.3-36.12-4.4-11-9.66-13.2-21.44-9.92-34.68,2.73-11,16.85-22.26,29.38-22.1A37,37,0,0,1,862.82,628.3Z" transform="translate(-745.1 -529.1)"/></svg>